<svg xmlns="http://www.w3.org/2000/svg" width="28.679" height="25.33" viewBox="0 0 28.679 25.33"><path d="M22.471,16.027a7.359,7.359,0,0,0-5.323,2.26,7.771,7.771,0,0,0,0,10.776L28.689,41.1a.875.875,0,0,0,1.155.079.747.747,0,0,0,.086-.079q5.781-6.009,11.554-12.023a7.768,7.768,0,0,0,0-10.776,7.4,7.4,0,0,0-10.645,0l-1.523,1.573-1.522-1.584a7.361,7.361,0,0,0-5.323-2.26Zm0,1.433a5.662,5.662,0,0,1,4.094,1.806L28.7,21.491a.876.876,0,0,0,1.155.078.784.784,0,0,0,.086-.078l2.124-2.2a5.534,5.534,0,0,1,8.189,0,6.438,6.438,0,0,1,0,8.807L29.316,39.466,18.377,28.085a6.453,6.453,0,0,1,0-8.819,5.661,5.661,0,0,1,4.094-1.806Z" transform="translate(-14.977 -16.027)"/></svg>