<?xml version="1.0" encoding="UTF-8"?>
<svg width="374px" height="58px" viewBox="0 0 374 58" version="1.1" xmlns="http://www.w3.org/2000/svg" xmlns:xlink="http://www.w3.org/1999/xlink">
    <!-- Generator: Sketch 50.2 (55047) - http://www.bohemiancoding.com/sketch -->
    <title>Group 23</title>
    <desc>Created with Sketch.</desc>
    <defs></defs>
    <g id="Design-&amp;-Moodboard" stroke="none" stroke-width="1" fill="none" fill-rule="evenodd">
        <g id="home" transform="translate(-989.000000, -2831.000000)">
            <g id="Group-49" transform="translate(86.000000, 2783.000000)">
                <g id="Group-44" transform="translate(753.000000, 0.000000)">
                    <g id="Group-23" transform="translate(150.000000, 48.000000)">
                        <g id="Logo/Divider">
                            <g id="Divider/Teal" transform="translate(171.211404, 0.000000)" fill="#00B6BD" fill-rule="nonzero">
                                <path d="M2.01194879,58.899825 C2.01194879,59.4369699 1.67997724,59.6733136 1.0059744,59.6733136 C0.33197155,59.6733136 0,59.4369699 0,58.899825 L0,0.773488595 C0,0.236343737 0.33197155,0 1.0059744,0 C1.67997724,0 2.01194879,0.236343737 2.01194879,0.773488595 L2.01194879,58.899825 Z"></path>
                            </g>
                            <g id="Zip/Navy" transform="translate(74.630612, 0.000000)" fill="#272560" fill-rule="nonzero">
                                <path d="M3.77167237,47.6044485 C2.76091971,47.6423968 1.78306942,47.2366956 1.08828139,46.4911339 C0.408114942,45.7384696 0.0453945546,44.7456777 0.0777343851,43.7251937 C0.0682532198,42.6973771 0.318761827,41.6842628 0.80532823,40.782637 C1.23279239,39.9764291 1.75481136,39.2256148 2.36001593,38.5465462 L17.3814085,21.3201319 L4.28782868,21.3201319 C3.01920352,21.3201319 2.1112659,20.8785908 1.61376583,20.0018161 C1.12937221,19.1210378 0.887711083,18.1242208 0.914156369,17.116029 C0.879177178,16.1443733 1.15515063,15.1873271 1.70082835,14.3879352 C2.24168753,13.6314262 3.12190654,13.2022117 4.04218803,13.2462358 L27.175941,13.2462358 C28.154052,13.2005256 29.1079756,13.5629381 29.8158008,14.2491651 C30.471879,14.9146308 30.8045821,15.8607905 30.8045821,17.0592594 C30.8322738,17.9925114 30.6404172,18.919032 30.2448946,19.7621223 C29.8653496,20.4966716 29.389432,21.1756725 28.8301287,21.7805963 L13.1868611,39.5273985 L28.0092536,39.5273985 C28.9009558,39.5048859 29.7498229,39.9148921 30.2946446,40.6312515 C30.8751685,41.4321615 31.1681201,42.4103974 31.1248478,43.4034994 C31.1671725,44.4381791 30.9226419,45.4641687 30.4190196,46.3649792 C29.9121914,47.1881382 29.0135819,47.6076023 27.7511755,47.6076023 L3.77167237,47.6044485 Z" id="Shape"></path>
                                <path d="M40.1109427,48.0586051 C35.9941297,48.0586051 35.1359421,45.9139765 35.1359421,44.116273 L35.1359421,17.8761106 C35.1359421,16.5041791 35.5432702,15.3940183 36.3517078,14.5771671 C37.1601455,13.7603159 38.4474269,13.3440057 40.1824583,13.3440057 C41.6438648,13.3440057 42.8005524,13.6814693 43.6245369,14.3500888 C44.4485214,15.0187083 44.9055996,16.0973304 44.9055996,17.4850313 L44.9055996,43.9775029 C44.9055996,45.4188195 44.4578495,46.4785184 43.5747869,47.1313686 C42.6917243,47.7842188 41.5568023,48.0586051 40.1109427,48.0586051 Z M40.1109427,10.5276036 C38.506505,10.5276036 37.1912392,10.0513699 36.1962391,9.11151793 C35.2012389,8.17166596 34.6819733,6.87542717 34.6819733,5.282725 C34.6437581,3.87073491 35.1907513,2.50713646 36.1900203,1.52331712 C37.1756923,0.542464896 38.4971769,0.0410002537 40.1109427,0.0410002537 C41.441713,0.0439438303 42.7352647,0.486833387 43.7955526,1.30254652 C44.9522402,2.16670572 45.5399122,3.51025249 45.5399122,5.29534046 C45.5399122,6.88804263 45.0299746,8.17797369 44.0256463,9.12728726 C43.0213181,10.0766008 41.7060523,10.5370652 40.1109427,10.5370652 L40.1109427,10.5276036 Z" id="Shape"></path>
                                <path d="M55.6391635,58.1136079 C51.7897567,58.1136079 50.9751004,55.934264 50.9751004,54.1050029 L50.9751004,16.9867711 C50.9418685,15.8241668 51.3828309,14.6991293 52.1939755,13.8770272 C52.9993038,13.0601675 54.2896946,12.6438529 56.024726,12.6438529 C57.1038832,12.6327321 58.1700074,12.8836146 59.1341014,13.3755573 C60.1570859,13.9085662 60.6887891,14.9525066 60.6887891,16.4506084 C60.8960808,16.2088095 61.1189194,15.9607028 61.3573048,15.7062883 C62.0107849,15.0334346 62.7415334,14.4425826 63.5338676,13.946413 C65.4596873,12.727172 67.6910176,12.0964755 69.9609466,12.1297674 C72.1361664,12.0869007 74.2911939,12.5599332 76.2543224,13.511175 C78.0509272,14.41072 79.6151599,15.7240918 80.8219949,17.3463156 C82.0796985,19.0814273 82.9979738,21.0449122 83.5271515,23.1305655 C84.132497,25.4872695 84.4294009,27.9145388 84.4102141,30.3498392 C84.4324446,32.830521 84.0908221,35.3007633 83.3965577,37.6794994 C82.7830917,39.7924872 81.7761563,41.766676 80.4302136,43.4952882 C79.1333487,45.1240772 77.4899525,46.4341144 75.6231192,47.327275 C73.5918102,48.272059 71.3775584,48.7430204 69.1431809,48.7055286 C67.6468832,48.749118 66.1540852,48.5358541 64.7278678,48.0747489 C63.7036034,47.7225169 62.7301136,47.233575 61.8330393,46.6208017 C61.3468162,46.2859379 60.8984355,45.8977705 60.4960079,45.4633209 L60.4960079,53.915769 C60.4960079,55.3854857 60.1011172,56.4704268 59.320664,57.1390533 C58.5402107,57.8076798 57.3399918,58.1136079 55.6391635,58.1136079 Z M67.4734463,20.5380609 C66.4139436,20.5120668 65.3656612,20.7629561 64.4293677,21.2666114 C63.5482852,21.7733798 62.7931453,22.4778405 62.2217112,23.3261072 C61.579714,24.2858415 61.1111885,25.3537838 60.8380392,26.4800057 C60.516224,27.7887691 60.3584733,29.133485 60.3685235,30.4823029 C60.3685235,33.5542001 60.9903986,36.0173948 62.2341487,37.8056553 C63.4778989,39.5939158 65.1662897,40.4296989 67.4858838,40.4296989 C69.8054778,40.4296989 71.4938687,39.5339917 72.6661032,37.6889611 C73.8383377,35.8439304 74.4633222,33.3870435 74.4633222,30.4823029 C74.4672117,29.1370392 74.3042448,27.7966223 73.9782596,26.4926213 C73.7050701,25.371255 73.2466983,24.3048897 72.6225719,23.3387228 C72.0674278,22.4892884 71.3214684,21.7856124 70.4460092,21.2855348 C69.5349452,20.7814144 68.5111638,20.5239767 67.4734463,20.5380609 Z" id="Shape"></path>
                            </g>
                            <g id="Icon/ColourPrimary" fill-rule="evenodd" stroke-width="1">
                                <g id="Group">
                                    <path d="M57.4245265,21.8499814 L44.4530284,33.5445153 L12.3263848,33.5445153 C9.3297668,33.5404686 6.43521074,34.635343 4.18851626,36.6226882 L20.3918748,22.0108285 L20.6404795,21.7900579 L40.9410944,3.46925224 C44.2144269,0.518247686 48.8099732,-0.458422189 52.9966353,0.907144704 C57.1832974,2.2727116 60.3250219,5.77305316 61.2383514,10.0896246 C62.1516809,14.4061961 60.6978591,18.8832075 57.4245265,21.834212 L57.4245265,21.8499814 Z" id="Shape" fill="#F15B41" fill-rule="nonzero"></path>
                                    <ellipse id="Oval" fill="#F99D1D" fill-rule="nonzero" cx="12.3263848" cy="12.6690784" rx="12.3263848" ry="12.3536918"></ellipse>
                                    <path d="M12.3263848,33.5445153 C9.3297668,33.5404686 6.43521074,34.635343 4.18851626,36.6226882 L4.08466875,36.7173042 C-0.976333817,41.279162 -1.38914511,49.0891206 3.16262893,54.161335 C7.71440296,59.2335495 15.5070981,59.6472754 20.5681009,55.0854178 L44.4561752,33.5476692 L12.3263848,33.5445153 Z" id="Shape" fill="#272560" fill-rule="nonzero"></path>
                                    <path d="M44.4364342,33.5539764 L20.5458518,55.0917251 C18.2836762,57.1304607 15.3465966,58.2544259 12.3043561,58.245744 L49.162943,58.2455908 C56.2724758,58.1317288 61.2920585,52.7710674 61.2920585,45.8934758 C61.2920585,39.0158843 55.8927898,33.649142 49.162943,33.5413609 L44.4364342,33.5539764 Z" id="Shape" fill="#00B6BD" fill-rule="nonzero"></path>
                                </g>
                            </g>
                        </g>
                        <path d="M220.237066,12.7849462 C223.50049,12.7849462 226.082273,13.6527807 227.982494,15.3884757 C229.882715,17.1241707 230.832811,19.788933 230.832811,23.3828426 L230.832811,42.863369 C230.832811,44.2927649 229.985987,45.0074521 228.292311,45.0074521 C226.474708,45.0074521 225.565921,44.2927649 225.565921,42.863369 L225.565921,25.0368496 C225.565921,23.8933329 225.472976,22.8519315 225.287085,21.9126142 C225.101194,20.973297 224.760399,20.187141 224.264689,19.5541228 C223.768979,18.9211047 223.097715,18.4310334 222.250878,18.0838944 C221.40404,17.7367554 220.319691,17.5631885 218.997798,17.5631885 C217.386741,17.5631885 216.044214,17.930742 214.970176,18.6658598 C213.896137,19.4009777 213.049313,20.3402809 212.429675,21.4837976 C211.810038,22.6273143 211.365971,23.9137513 211.097462,25.3431472 C210.828952,26.7725431 210.694699,28.1814978 210.694699,29.5700538 L210.694699,42.863369 C210.694699,44.2927649 209.847874,45.0074521 208.154199,45.0074521 C206.336596,45.0074521 205.427809,44.2927649 205.427809,42.863369 L205.427809,25.0368496 C205.427809,23.8933329 205.334864,22.8519315 205.148973,21.9126142 C204.963082,20.973297 204.622287,20.187141 204.126577,19.5541228 C203.630867,18.9211047 202.959603,18.4310334 202.112766,18.0838944 C201.265928,17.7367554 200.181579,17.5631885 198.859686,17.5631885 C197.248629,17.5631885 195.906101,17.9205322 194.832063,18.6352301 C193.758025,19.349928 192.9112,20.2790214 192.291563,21.4225381 C191.671926,22.5660548 191.227859,23.8524918 190.95935,25.2818877 C190.69084,26.7112835 190.556587,28.1202383 190.556587,29.5087943 L190.556587,42.5570714 C190.556587,43.4963887 190.319063,44.1396072 189.844008,44.4867462 C189.368953,44.8338852 188.718343,45.0074521 187.89216,45.0074521 C187.065977,45.0074521 186.425695,44.8338852 185.971294,44.4867462 C185.516893,44.1396072 185.289697,43.4963887 185.289697,42.5570714 L185.289697,15.725403 C185.289697,14.8269256 185.496239,14.2143366 185.909331,13.8876175 C186.322422,13.5608985 186.94205,13.3975414 187.768233,13.3975414 C188.594416,13.3975414 189.224372,13.5608985 189.658118,13.8876175 C190.091864,14.2143366 190.308734,14.8269256 190.308734,15.725403 L190.308734,18.6046003 C190.350043,18.4412408 190.515277,18.0736874 190.804441,17.501929 C191.134914,16.8484909 191.671925,16.174643 192.41549,15.480365 C193.159055,14.786087 194.160787,14.1632881 195.420716,13.6119497 C196.680645,13.0606113 198.260697,12.7849462 200.160918,12.7849462 C202.680776,12.7849462 204.735876,13.2852273 206.326278,14.2858044 C207.916681,15.2863815 209.062992,16.6442872 209.765248,18.3595623 C210.63274,16.6851271 211.975268,15.3374312 213.792871,14.3164342 C215.610473,13.2954371 217.758517,12.7849462 220.237066,12.7849462 Z M244.154947,29.1412372 C244.154947,32.8576665 244.981118,35.7776743 246.633484,37.9013481 C248.28585,40.025022 250.661091,41.086843 253.759277,41.086843 C256.857464,41.086843 259.232705,40.025022 260.885071,37.9013481 C262.537437,35.7776743 263.363608,32.8576665 263.363608,29.1412372 C263.363608,25.424808 262.537437,22.5252198 260.885071,20.4423858 C259.232705,18.3595519 256.857464,17.3181505 253.759277,17.3181505 C250.661091,17.3181505 248.28585,18.3595519 246.633484,20.4423858 C244.981118,22.5252198 244.154947,25.424808 244.154947,29.1412372 Z M238.578239,29.1412372 C238.578239,26.5683246 238.939689,24.2711157 239.662599,22.2495416 C240.385509,20.2279674 241.418223,18.5127181 242.76077,17.1037422 C244.103318,15.6947662 245.704023,14.6227354 247.562935,13.8876175 C249.421847,13.1524997 251.487274,12.7849462 253.759277,12.7849462 C256.031281,12.7849462 258.096708,13.1524997 259.95562,13.8876175 C261.814532,14.6227354 263.415237,15.6947662 264.757785,17.1037422 C266.100332,18.5127181 267.133046,20.2279674 267.855956,22.2495416 C268.578866,24.2711157 268.940316,26.5683246 268.940316,29.1412372 C268.940316,31.7141498 268.578866,34.0215685 267.855956,36.0635626 C267.133046,38.1055567 266.100332,39.8310159 264.757785,41.2399918 C263.415237,42.6489677 261.814532,43.7312084 259.95562,44.4867462 C258.096708,45.242284 256.031281,45.6200472 253.759277,45.6200472 C251.487274,45.6200472 249.421847,45.242284 247.562935,44.4867462 C245.704023,43.7312084 244.103318,42.6489677 242.76077,41.2399918 C241.418223,39.8310159 240.385509,38.1055567 239.662599,36.0635626 C238.939689,34.0215685 238.578239,31.7141498 238.578239,29.1412372 Z M281.952634,42.5570714 C281.952634,43.4963887 281.71511,44.1396072 281.240055,44.4867462 C280.765,44.8338852 280.11439,45.0074521 279.288207,45.0074521 C278.462024,45.0074521 277.821742,44.8338852 277.367341,44.4867462 C276.91294,44.1396072 276.685744,43.4963887 276.685744,42.5570714 L276.685744,15.725403 C276.685744,14.8269256 276.892286,14.2143366 277.305378,13.8876175 C277.718469,13.5608985 278.338097,13.3975414 279.16428,13.3975414 C279.990463,13.3975414 280.620419,13.5608985 281.054165,13.8876175 C281.487911,14.2143366 281.704781,14.8269256 281.704781,15.725403 L281.704781,18.6046003 C282.283109,17.5427634 283.067971,16.5830406 284.059391,15.725403 C284.885574,14.9902852 285.969923,14.3164372 287.31247,13.703839 C288.655018,13.0912408 290.338341,12.7849462 292.362489,12.7849462 C295.625912,12.7849462 298.269659,13.6834102 300.293807,15.480365 C302.317956,17.2773198 303.330015,20.0339705 303.330015,23.7503997 L303.330015,42.863369 C303.330015,44.2927649 302.48319,45.0074521 300.789515,45.0074521 C298.971912,45.0074521 298.063124,44.2927649 298.063124,42.863369 L298.063124,25.0368496 C298.063124,22.6272966 297.557094,20.7895294 296.54502,19.5234931 C295.532946,18.2574567 293.705043,17.6244481 291.061257,17.6244481 C289.4502,17.6244481 288.066364,17.9817917 286.909708,18.6964896 C285.753052,19.4111875 284.813283,20.3402809 284.090372,21.4837976 C283.367462,22.6273143 282.830451,23.9035415 282.479323,25.3125174 C282.128196,26.7214934 281.952634,28.1202383 281.952634,29.5087943 L281.952634,42.5570714 Z M326.008627,17.256891 C324.562807,17.256891 323.302896,17.4917168 322.228858,17.9613754 C321.15482,18.431034 320.246033,19.0640427 319.502468,19.8604204 C318.758903,20.6567981 318.170257,21.5961013 317.73651,22.6783582 C317.302764,23.7606151 317.023932,24.8939048 316.900004,26.0782614 L334.93136,26.0782614 C334.807432,24.9347447 334.549254,23.8218746 334.156817,22.7396177 C333.76438,21.6573608 333.206715,20.7180576 332.483805,19.9216799 C331.760895,19.1253022 330.862434,18.4820837 329.788396,17.9920052 C328.714358,17.5019266 327.454448,17.256891 326.008627,17.256891 Z M340.260214,28.4673825 C340.260214,29.9376183 339.413389,30.6727251 337.719714,30.6727251 L316.652151,30.6727251 C316.652151,33.9807556 317.488648,36.5332099 319.161669,38.3301647 C320.83469,40.1271195 323.199603,41.0255835 326.256481,41.0255835 C327.454446,41.0255835 328.497487,40.8724362 329.385634,40.5661371 C330.27378,40.259838 331.027661,39.8922846 331.647299,39.4634658 C332.266936,39.034647 332.772965,38.5956249 333.165402,38.1463862 C333.557839,37.6971475 333.87798,37.3091744 334.125835,36.9824554 C334.415,36.5740565 334.693832,36.267762 334.962342,36.0635626 C335.230851,35.8593632 335.633609,35.757265 336.170628,35.757265 C336.748956,35.757265 337.316949,35.9410417 337.874622,36.3086007 C338.432296,36.6761596 338.711129,37.1662309 338.711129,37.7788291 C338.711129,38.3097476 338.483932,38.9427562 338.029531,39.6778741 C337.657749,40.2496325 337.172373,40.8724313 336.573391,41.5462894 C335.974408,42.2201474 335.2102,42.8633659 334.280744,43.4759641 C333.351288,44.0885624 332.22563,44.5990532 330.903737,45.0074521 C329.581845,45.4158509 328.032775,45.6200472 326.256481,45.6200472 C323.943168,45.6200472 321.84676,45.2218644 319.967194,44.4254867 C318.087627,43.629109 316.486921,42.506029 315.165028,41.0562132 C313.843135,39.6063974 312.831076,37.8707285 312.128821,35.8491543 C311.426565,33.8275801 311.075443,31.6120498 311.075443,29.2024967 C311.075443,26.7521038 311.426565,24.5263636 312.128821,22.5252094 C312.831076,20.5240552 313.832808,18.7985961 315.134047,17.3487802 C316.435285,15.8989644 318.005009,14.7758845 319.843267,13.9795068 C321.681524,13.1831291 323.736624,12.7849462 326.008627,12.7849462 C328.32194,12.7849462 330.366712,13.1831291 332.143006,13.9795068 C333.9193,14.7758845 335.406407,15.8785448 336.604372,17.2875207 C337.802338,18.6964967 338.711126,20.3606969 339.330763,22.2801713 C339.9504,24.1996458 340.260214,26.2620289 340.260214,28.4673825 Z M355.813033,55.9729056 C355.523869,56.5446639 355.214055,56.9734763 354.883582,57.2593554 C354.553108,57.5452346 354.057406,57.688172 353.39646,57.688172 C352.694204,57.688172 352.09523,57.4941855 351.59952,57.1062066 C351.10381,56.7182278 350.855959,56.1771074 350.855959,55.4828294 C350.855959,55.27863 350.886941,55.0335944 350.948904,54.7477152 C351.010868,54.4618361 351.145121,54.1147023 351.351667,53.7063035 L355.874996,43.6597427 L345.031398,17.8082266 C344.866161,17.3998278 344.700927,17.0220646 344.53569,16.6749256 C344.370454,16.3277866 344.287837,15.9908626 344.287837,15.6641435 C344.287837,14.9698655 344.607978,14.4185354 345.24827,14.0101366 C345.888562,13.6017378 346.601134,13.3975414 347.386008,13.3975414 C348.336118,13.3975414 349.038363,13.9692912 349.492764,15.1128079 L358.725314,37.533791 L368.453571,14.9902888 C368.701426,14.4185305 368.969931,14.0101378 369.259096,13.7650985 C369.54826,13.5200592 369.940691,13.3975414 370.436401,13.3975414 C371.179965,13.3975414 371.861556,13.5813181 372.481193,13.9488771 C373.100831,14.316436 373.410645,14.8473465 373.410645,15.5416245 C373.410645,15.8275037 373.338355,16.144008 373.193773,16.491147 C373.049191,16.838286 372.894284,17.1956296 372.729047,17.5631885 L355.813033,55.9729056 Z" id="money" fill="#272560"></path>
                    </g>
                </g>
            </g>
        </g>
    </g>
</svg>